<?xml version="1.0" encoding="utf-8"?>
<svg version="1.1" xmlns="http://www.w3.org/2000/svg" xmlns:xlink="http://www.w3.org/1999/xlink" x="0px" y="0px" width="510.2px" height="153.2px" viewBox="0 0 510.2 153.2" style="enable-background:new 0 0 510.2 153.2;" xml:space="preserve">
<style type="text/css">
	.st0{fill:#F5AA00;}
	.st1{fill:#E62D8C;}
	.st2{fill:#009682;}
	.st3{fill:#E6001E;}
	.st4{fill:#A5C80F;}
	.st5{fill:#009BEB;}
</style>
<path class="st0" d="M485.4,73.7l22.9,3c0.7,0.1,1.3-0.4,1.4-1.1c0.7-6.4,0.8-12.8,0-19.2c-0.1-0.7-0.7-1.2-1.4-1.1l-22.9,3
	c-0.7,0.1-1.1,0.7-1.1,1.4c0.5,4.2,0.4,8.4,0,12.6C484.3,73,484.7,73.6,485.4,73.7"/>
<path class="st1" d="M473.9,101.4l18.3,14c0.5,0.4,1.3,0.3,1.8-0.2c3.8-5.2,7.1-10.7,9.6-16.6c0.3-0.6,0-1.4-0.7-1.6l-21.3-8.9
	c-0.6-0.3-1.3,0-1.6,0.7c-1.7,3.9-3.8,7.5-6.3,10.9C473.2,100.2,473.3,101,473.9,101.4"/>
<path class="st2" d="M481.5,43.9l21.3-8.8c0.6-0.3,0.9-1,0.7-1.6c-2.5-5.9-5.8-11.5-9.6-16.6c-0.4-0.6-1.2-0.7-1.8-0.2l-18.3,14
	c-0.5,0.4-0.6,1.2-0.2,1.7c2.5,3.4,4.6,7.1,6.3,10.9C480.2,43.9,480.9,44.2,481.5,43.9"/>
<path class="st3" d="M36.4,30.6L18.1,16.6c-0.5-0.4-1.3-0.3-1.8,0.2c-3.8,5.1-7.1,10.7-9.6,16.6c-0.3,0.6,0,1.4,0.7,1.6l21.3,8.9
	c0.6,0.3,1.3,0,1.6-0.7c1.7-3.9,3.8-7.5,6.3-10.9C37,31.8,36.9,31,36.4,30.6"/>
<path class="st4" d="M24.8,58.3L2,55.3c-0.7-0.1-1.3,0.4-1.4,1.1c-0.7,6.4-0.8,12.8,0,19.2c0.1,0.7,0.7,1.2,1.4,1.1l22.9-3
	c0.7-0.1,1.1-0.7,1.1-1.4c-0.5-4.2-0.5-8.4,0-12.6C26,59,25.5,58.4,24.8,58.3"/>
<path class="st5" d="M28.7,88.1L7.4,96.9c-0.6,0.3-0.9,1-0.7,1.6c2.5,5.9,5.8,11.5,9.6,16.6c0.4,0.6,1.2,0.7,1.8,0.2l18.3-14
	c0.5-0.4,0.6-1.2,0.2-1.7c-2.5-3.4-4.6-7.1-6.3-10.9C30,88.2,29.3,87.9,28.7,88.1"/>
<path d="M82.8,30.1c-21.3,0-36.8,16.4-36.8,36c0,22.8,15.9,35.7,34.5,35.7c3.8,0,8.7-0.5,11.6-1.7c0.7-0.3,1-1,1-1.7V81.3
	c0-0.8-0.8-1.4-1.6-1.2c-1.9,0.5-4.4,1.2-8.6,1.2c-6.8,0-14.6-4.8-14.6-15.8c0-8.6,6.7-14.9,14.5-14.9c9.8,0,15.8,6.8,15.8,15.9V99
	c0,0.7,0.6,1.2,1.2,1.2h20c0.7,0,1.2-0.6,1.2-1.2V65.6C121.4,44.3,106.2,30.1,82.8,30.1 M261.5,31.8h-20c-0.7,0-1.2,0.6-1.2,1.2V99
	c0,0.7,0.6,1.2,1.2,1.2h20c0.7,0,1.2-0.6,1.2-1.2V33.1C262.7,32.4,262.1,31.8,261.5,31.8 M251.4,0c-7.2,0-12.8,5.5-12.8,12.8
	c0,7.3,5.6,12.8,12.8,12.8c7.2,0,12.8-5.5,12.8-12.8C264.2,5.5,258.6,0,251.4,0 M285.8,0C278.6,0,273,5.5,273,12.8
	c0,7.3,5.6,12.8,12.8,12.8c7.2,0,12.8-5.5,12.8-12.8C298.6,5.5,293,0,285.8,0 M295.8,31.8h-20c-0.7,0-1.2,0.6-1.2,1.2V99
	c0,0.7,0.6,1.2,1.2,1.2h20c0.7,0,1.2-0.6,1.2-1.2V33.1C297,32.4,296.5,31.8,295.8,31.8 M427.9,30.1c-19.8,0-36.4,16.1-36.4,35.9
	c0,19.8,16.6,35.9,36.4,35.9c19.7,0,36.4-16.4,36.4-35.9C464.2,46.5,447.7,30.1,427.9,30.1 M427.9,81.3c-8.7,0-15.2-6.8-15.2-15.3
	c0-8.5,6.5-15.3,15.2-15.3c8.7,0,15.2,6.8,15.2,15.3C443.1,74.6,436.6,81.3,427.9,81.3 M200.3,30.1c-7.5,0-14.5,3.1-20.1,9.2
	c-5.6-6.1-12.6-9.2-20.1-9.2c-15.6,0-28,9.9-28,26.3V99c0,0.7,0.6,1.2,1.2,1.2h20c0.7,0,1.2-0.6,1.2-1.2V58.8c0-4.5,3.2-7,7.2-7
	c3.9,0,7.2,2.6,7.2,7V99c0,0.7,0.6,1.2,1.2,1.2h20c0.7,0,1.2-0.6,1.2-1.2V58.8c0-4.4,3.2-7,7.2-7c3.9,0,7.2,2.6,7.2,7V99
	c0,0.7,0.6,1.2,1.2,1.2h20c0.7,0,1.2-0.6,1.2-1.2V56.4C228.4,40,216,30.1,200.3,30.1 M348.5,30.1c-3.9,0-7.5,0.9-10.1,1.7
	c-0.7,0.2-1.1,0.9-1.1,1.6v17.4c0,0.8,0.8,1.4,1.6,1.2c2.2-0.7,5.3-1.3,8-1.3c9.3,0,15.1,6.9,15.1,15.3c0,8.6-6.1,15.6-15.4,15.3
	c-8.4-0.2-15-6.9-15-15.3V2.9c0-0.7-0.6-1.2-1.2-1.2h-20c-0.7,0-1.2,0.6-1.2,1.2v62.4c0,21.6,14.6,36.5,38,36.5
	c20.4,0,37.4-16.1,37.4-36C384.5,45.8,370.8,30.1,348.5,30.1"/>
<path d="M195.5,122.7h-27.8c-0.4,0-0.8,0.4-0.8,0.8v4.3c0,0.4,0.4,0.8,0.8,0.8h20.9c0.5,0,0.8,0.5,0.7,0.9c-0.8,3.4-2.9,6.3-6.7,7.4
	c0.1-1,0.3-2.7,0.3-3.9v-1c0-0.4-0.4-0.8-0.8-0.8h-4.5c-0.4,0-0.8,0.4-0.8,0.8v0.7c0,8.2-3.1,12.3-8.4,14.4
	c-0.3,0.1-0.5,0.4-0.5,0.7v4.3c0,0.5,0.5,0.9,1,0.8c5.1-1.2,9.5-4.1,12.1-9.4c8-1.5,15.5-7.1,15.6-19.7
	C196.7,124,196.7,122.7,195.5,122.7 M217.5,133.4c-0.4,0-0.8,0.4-0.8,0.8v4.3c0,0.4,0.3,0.8,0.8,0.8c7,0,14.6,0.6,22.1,1.3
	c0.5,0,0.9-0.3,0.9-0.8v-4.5c0-0.4-0.3-0.8-0.7-0.8C232.2,133.7,224.5,133.4,217.5,133.4 M242.5,146c-8.2-1.1-18.5-1.8-27.3-1.9
	c-0.4,0-0.8,0.4-0.8,0.8v4.6c0,0.4,0.3,0.8,0.8,0.8c8.5,0.1,18.5,0.9,27.1,2.1c0.5,0.1,0.9-0.3,0.9-0.8v-4.8
	C243.2,146.4,242.9,146.1,242.5,146 M216.5,128.9c8.1,0,16.4,0.4,24.6,1.1c0.5,0,0.9-0.3,0.9-0.8v-4.6c0-0.4-0.3-0.8-0.7-0.8
	c-7.4-0.6-16.6-0.9-24.7-1c-0.4,0-0.8,0.4-0.8,0.8v4.5C215.7,128.5,216,128.9,216.5,128.9 M291.5,133h-30.2c-0.4,0-0.8,0.4-0.8,0.8
	v5.3c0,0.4,0.4,0.8,0.8,0.8h30.2c0.4,0,0.8-0.4,0.8-0.8v-5.3C292.3,133.4,291.9,133,291.5,133 M318.9,135.9h-4.2
	c-0.4,0-0.8,0.3-0.8,0.8c-0.2,4.7-1.3,6.3-3.6,8.3c-0.2,0.2-0.3,0.4-0.3,0.6v5c0,0.6,0.6,1,1.2,0.7c5.9-2.7,8.2-6.7,8.5-14.6
	C319.7,136.3,319.3,135.9,318.9,135.9 M340.2,131.6v-4.1c0-0.4-0.4-0.8-0.8-0.8h-11v-4.5c0-0.4-0.4-0.8-0.8-0.8H323
	c-0.4,0-0.8,0.4-0.8,0.8v4.5h-10.8c-0.4,0-0.8,0.4-0.8,0.8v4.1c0,0.4,0.4,0.8,0.8,0.8h10.8v19.7c0,0.6,0.5,1.1,1.1,1.1h4.1
	c0.6,0,1.1-0.5,1.1-1.1v-19.7h11C339.9,132.4,340.2,132.1,340.2,131.6 M332.9,124.2h3.1c0.4,0,0.7-0.3,0.7-0.7v-5.3
	c0-0.4-0.3-0.7-0.7-0.7h-3.1c-0.4,0-0.7,0.3-0.7,0.7v5.3C332.2,123.9,332.5,124.2,332.9,124.2 M336.8,136.7c0-0.4-0.4-0.8-0.8-0.8
	h-4.4c-0.5,0-0.8,0.4-0.8,0.8c0.3,7.9,2.7,12,8.9,14.7c0.5,0.2,1.1-0.1,1.1-0.7v-5.1c0-0.2-0.1-0.4-0.3-0.6
	C338.2,143,337,141.4,336.8,136.7 M342.6,117.6h-3.1c-0.4,0-0.7,0.3-0.7,0.7v5.3c0,0.4,0.3,0.7,0.7,0.7h3.1c0.4,0,0.7-0.3,0.7-0.7
	v-5.3C343.3,117.9,343,117.6,342.6,117.6"/>
</svg>
